<svg viewBox="0 0 480 480" xmlns="http://www.w3.org/2000/svg"><path fill="#3b99fc" d="M0 0h480v480H0z"/><path fill="#fff" d="M126.61 168.84c62.51-61.12 163.84-61.12 226.36 0l7.52 7.36c1.56 1.53 1.56 4 0 5.53l-25.74 25.18c-.78.76-2.05.76-2.83 0l-10.36-10.13c-43.62-42.67-114.31-42.67-157.93 0l-11.09 10.85c-.78.76-2.05.76-2.83 0l-25.74-25.18c-1.56-1.53-1.56-4 0-5.53zm279.6 52.1l22.91 22.4c1.56 1.53 1.56 4 0 5.53L325.79 348.31c-1.56 1.53-4.1 1.53-5.66 0l-73.31-71.7a1 1 0 0 0-1.41 0l-73.31 71.7c-1.56 1.53-4.1 1.53-5.66 0L62.14 248.87c-1.56-1.53-1.56-4 0-5.53l22.91-22.4c1.56-1.53 4.1-1.53 5.66 0l73.32 71.71a1 1 0 0 0 1.41 0l73.31-71.71c1.56-1.53 4.1-1.53 5.66 0l73.32 71.71a1 1 0 0 0 1.41 0l73.31-71.71c1.57-1.52 4.11-1.52 5.67 0z"/></svg>